<svg xmlns="http://www.w3.org/2000/svg" xmlns:xlink="http://www.w3.org/1999/xlink" width="500" zoomAndPan="magnify" viewBox="0 0 375 374.999991" height="500" preserveAspectRatio="xMidYMid meet" version="1.0"><defs><g/><clipPath id="bbb89eca36"><path d="M 116.320312 32.132812 L 327 32.132812 L 327 114.632812 L 116.320312 114.632812 Z M 116.320312 32.132812 " clip-rule="nonzero"/></clipPath></defs><g fill="#004d94" fill-opacity="1"><g transform="translate(164.917172, 268.925872)"><g><path d="M 143.703125 -6.8125 C 143.703125 -2.269531 141.429688 0 136.890625 0 L 121.5625 0 C 119.289062 0 117.765625 -0.53125 116.984375 -1.59375 C 116.203125 -2.65625 115.457031 -3.96875 114.75 -5.53125 L 95.375 -61.53125 L 43 -38.328125 L 31.296875 -5.53125 C 30.585938 -3.832031 29.878906 -2.484375 29.171875 -1.484375 C 28.460938 -0.492188 26.828125 0 24.265625 0 L 9.578125 0 C 7.878906 0 6.285156 -0.632812 4.796875 -1.90625 C 3.304688 -3.1875 2.5625 -4.820312 2.5625 -6.8125 C 2.5625 -6.957031 3.234375 -9.085938 4.578125 -13.203125 C 5.921875 -17.316406 7.800781 -22.882812 10.21875 -29.90625 C 12.632812 -36.9375 15.332031 -44.847656 18.3125 -53.640625 C 21.289062 -62.441406 24.410156 -71.597656 27.671875 -81.109375 C 30.941406 -90.617188 34.132812 -99.984375 37.25 -109.203125 C 40.375 -118.429688 43.285156 -126.910156 45.984375 -134.640625 C 48.679688 -142.378906 50.988281 -148.910156 52.90625 -154.234375 C 54.820312 -159.554688 56.132812 -163.070312 56.84375 -164.78125 C 57.550781 -166.34375 58.332031 -167.65625 59.1875 -168.71875 C 60.039062 -169.78125 61.53125 -170.3125 63.65625 -170.3125 L 82.390625 -170.3125 C 84.515625 -170.3125 85.96875 -169.742188 86.75 -168.609375 C 87.53125 -167.472656 88.273438 -166.195312 88.984375 -164.78125 L 143.484375 -9.375 C 143.628906 -8.375 143.703125 -7.519531 143.703125 -6.8125 Z M 85.15625 -89.84375 C 83.875 -93.25 82.804688 -96.050781 81.953125 -98.25 C 81.109375 -100.445312 80.546875 -102.113281 80.265625 -103.25 C 79.972656 -104.382812 79.613281 -105.484375 79.1875 -106.546875 C 78.769531 -107.617188 78.414062 -108.722656 78.125 -109.859375 C 77.414062 -111.984375 76.671875 -114.25 75.890625 -116.65625 C 75.109375 -119.070312 74.148438 -121.914062 73.015625 -125.1875 L 55.78125 -76.859375 Z M 85.15625 -89.84375 "/></g></g></g><g fill="#004d94" fill-opacity="1"><g transform="translate(52.033222, 268.925872)"><g><path d="M 137.109375 -46.203125 C 137.109375 -37.679688 135.046875 -29.941406 130.921875 -22.984375 C 126.804688 -16.035156 121.234375 -10.46875 114.203125 -6.28125 C 107.179688 -2.09375 99.414062 0 90.90625 0 L 19.375 0 C 17.382812 0 15.785156 -0.707031 14.578125 -2.125 C 13.378906 -3.550781 12.78125 -5.113281 12.78125 -6.8125 L 12.34375 -163.5 C 12.34375 -165.488281 13.015625 -167.117188 14.359375 -168.390625 C 15.710938 -169.671875 17.382812 -170.3125 19.375 -170.3125 L 89.203125 -170.3125 C 95.867188 -170.3125 101.898438 -168.675781 107.296875 -165.40625 C 112.691406 -162.144531 116.984375 -157.78125 120.171875 -152.3125 C 123.367188 -146.851562 124.96875 -140.789062 124.96875 -134.125 C 124.96875 -126.882812 123.691406 -120.992188 121.140625 -116.453125 C 118.578125 -111.910156 112.898438 -107.296875 104.109375 -102.609375 C 115.742188 -100.484375 124.148438 -96.367188 129.328125 -90.265625 C 134.515625 -84.160156 137.109375 -75.363281 137.109375 -63.875 Z M 40.65625 -95.15625 C 44.78125 -97.289062 49.710938 -99.914062 55.453125 -103.03125 C 61.203125 -106.15625 66.914062 -109.382812 72.59375 -112.71875 C 78.269531 -116.0625 83.203125 -119.148438 87.390625 -121.984375 C 91.578125 -124.828125 94.164062 -127.03125 95.15625 -128.59375 C 96.007812 -129.863281 96.4375 -131.707031 96.4375 -134.125 C 96.4375 -136.25 95.757812 -138.09375 94.40625 -139.65625 C 93.0625 -141.21875 91.328125 -142 89.203125 -142 L 40.65625 -142 Z M 40.65625 -64.5 L 40.65625 -28.3125 L 90.90625 -28.3125 C 95.875 -28.3125 100.128906 -30.085938 103.671875 -33.640625 L 105.8125 -36.1875 C 107.507812 -38.175781 108.460938 -40.234375 108.671875 -42.359375 C 108.890625 -44.492188 109 -45.773438 109 -46.203125 C 109 -47.335938 109.035156 -48.398438 109.109375 -49.390625 C 109.179688 -50.378906 109.21875 -51.441406 109.21875 -52.578125 C 109.21875 -53.578125 109.25 -54.570312 109.3125 -55.5625 C 109.382812 -56.5625 109.421875 -57.554688 109.421875 -58.546875 C 109.421875 -66.210938 107.859375 -71.5 104.734375 -74.40625 C 101.617188 -77.3125 98.070312 -78.765625 94.09375 -78.765625 L 66.84375 -78.765625 Z M 40.65625 -64.5 "/></g></g></g><g clip-path="url(#bbb89eca36)"><path fill="#018fc6" d="M 325.589844 57.714844 L 226.855469 32.996094 C 223.539062 32.167969 220.089844 32.167969 216.84375 32.996094 L 118.035156 57.714844 C 116.308594 58.128906 116.308594 60.613281 118.035156 61.03125 L 166.578125 73.183594 C 194.058594 65.035156 223.609375 64.621094 251.710938 69.589844 C 223.265625 66.414062 193.296875 68.902344 166.578125 79.1875 L 166.578125 93.066406 C 166.578125 94.242188 167.679688 95 168.785156 94.65625 C 184.527344 89.824219 202.617188 86.992188 221.8125 86.992188 C 241.007812 86.992188 259.097656 89.824219 274.910156 94.65625 C 276.015625 95 277.050781 94.242188 277.050781 93.066406 L 277.050781 73.183594 L 298.25 67.867188 L 298.25 105.011719 L 297.902344 105.011719 C 297.144531 105.011719 296.523438 105.632812 296.523438 106.394531 L 296.523438 113.230469 C 296.523438 113.988281 297.144531 114.609375 297.902344 114.609375 L 302.046875 114.609375 C 302.804688 114.609375 303.425781 113.988281 303.425781 113.230469 L 303.425781 106.394531 C 303.425781 105.632812 302.804688 105.011719 302.046875 105.011719 L 301.699219 105.011719 L 301.699219 67.035156 L 325.589844 61.03125 C 327.386719 60.617188 327.386719 58.128906 325.589844 57.714844 Z M 325.589844 57.714844 " fill-opacity="1" fill-rule="nonzero"/></g><g fill="#004d94" fill-opacity="1"><g transform="translate(131.471393, 333.156482)"><g><path d="M 13.4375 -0.640625 C 13.4375 -0.210938 13.222656 0 12.796875 0 L 11.359375 0 C 11.148438 0 11.007812 -0.046875 10.9375 -0.140625 C 10.863281 -0.242188 10.796875 -0.367188 10.734375 -0.515625 L 8.921875 -5.75 L 4.015625 -3.578125 L 2.921875 -0.515625 C 2.859375 -0.359375 2.789062 -0.234375 2.71875 -0.140625 C 2.65625 -0.046875 2.503906 0 2.265625 0 L 0.890625 0 C 0.734375 0 0.582031 -0.0546875 0.4375 -0.171875 C 0.300781 -0.296875 0.234375 -0.453125 0.234375 -0.640625 C 0.234375 -0.648438 0.296875 -0.847656 0.421875 -1.234375 C 0.546875 -1.617188 0.722656 -2.140625 0.953125 -2.796875 C 1.179688 -3.453125 1.429688 -4.191406 1.703125 -5.015625 C 1.984375 -5.835938 2.273438 -6.691406 2.578125 -7.578125 C 2.890625 -8.472656 3.191406 -9.347656 3.484375 -10.203125 C 3.773438 -11.066406 4.046875 -11.859375 4.296875 -12.578125 C 4.546875 -13.304688 4.757812 -13.921875 4.9375 -14.421875 C 5.125 -14.921875 5.25 -15.25 5.3125 -15.40625 C 5.382812 -15.550781 5.457031 -15.671875 5.53125 -15.765625 C 5.613281 -15.867188 5.753906 -15.921875 5.953125 -15.921875 L 7.703125 -15.921875 C 7.898438 -15.921875 8.035156 -15.867188 8.109375 -15.765625 C 8.179688 -15.660156 8.253906 -15.539062 8.328125 -15.40625 L 13.421875 -0.875 C 13.429688 -0.78125 13.4375 -0.703125 13.4375 -0.640625 Z M 7.96875 -8.40625 C 7.84375 -8.71875 7.738281 -8.976562 7.65625 -9.1875 C 7.582031 -9.394531 7.53125 -9.550781 7.5 -9.65625 C 7.476562 -9.757812 7.445312 -9.859375 7.40625 -9.953125 C 7.363281 -10.054688 7.332031 -10.160156 7.3125 -10.265625 C 7.238281 -10.460938 7.164062 -10.675781 7.09375 -10.90625 C 7.019531 -11.132812 6.929688 -11.398438 6.828125 -11.703125 L 5.21875 -7.1875 Z M 7.96875 -8.40625 "/></g></g></g><g fill="#004d94" fill-opacity="1"><g transform="translate(145.181403, 333.156482)"><g><path d="M 7.578125 -16.1875 C 8.671875 -16.1875 9.660156 -15.957031 10.546875 -15.5 C 11.441406 -15.039062 12.1875 -14.40625 12.78125 -13.59375 C 13.375 -12.78125 13.78125 -11.859375 14 -10.828125 L 13.96875 -10.625 C 13.9375 -10.5 13.875 -10.367188 13.78125 -10.234375 C 13.6875 -10.109375 13.546875 -10.046875 13.359375 -10.046875 L 12.015625 -10.046875 C 11.847656 -10.046875 11.71875 -10.085938 11.625 -10.171875 C 11.539062 -10.253906 11.46875 -10.359375 11.40625 -10.484375 C 11.300781 -10.796875 11.203125 -11.078125 11.109375 -11.328125 C 11.015625 -11.578125 10.878906 -11.816406 10.703125 -12.046875 C 10.347656 -12.535156 9.898438 -12.914062 9.359375 -13.1875 C 8.816406 -13.457031 8.222656 -13.59375 7.578125 -13.59375 C 6.878906 -13.59375 6.234375 -13.414062 5.640625 -13.0625 C 5.046875 -12.71875 4.570312 -12.25 4.21875 -11.65625 C 3.875 -11.0625 3.703125 -10.40625 3.703125 -9.6875 L 3.703125 -6.234375 C 3.703125 -5.515625 3.875 -4.859375 4.21875 -4.265625 C 4.570312 -3.679688 5.046875 -3.210938 5.640625 -2.859375 C 6.234375 -2.503906 6.878906 -2.328125 7.578125 -2.328125 C 8.222656 -2.328125 8.816406 -2.46875 9.359375 -2.75 C 9.898438 -3.03125 10.363281 -3.421875 10.75 -3.921875 C 10.945312 -4.179688 11.09375 -4.445312 11.1875 -4.71875 C 11.289062 -5 11.382812 -5.304688 11.46875 -5.640625 L 11.453125 -5.59375 C 11.515625 -5.945312 11.71875 -6.125 12.0625 -6.125 L 13.390625 -6.125 C 13.578125 -6.125 13.726562 -6.054688 13.84375 -5.921875 C 13.96875 -5.796875 14.03125 -5.65625 14.03125 -5.5 C 14.03125 -5.300781 14.003906 -5.085938 13.953125 -4.859375 C 13.898438 -4.640625 13.84375 -4.441406 13.78125 -4.265625 C 13.488281 -3.410156 13.019531 -2.644531 12.375 -1.96875 C 11.738281 -1.289062 11.003906 -0.753906 10.171875 -0.359375 C 9.347656 0.0234375 8.484375 0.21875 7.578125 0.21875 C 6.691406 0.21875 5.859375 0.0507812 5.078125 -0.28125 C 4.296875 -0.613281 3.609375 -1.070312 3.015625 -1.65625 C 2.421875 -2.25 1.953125 -2.9375 1.609375 -3.71875 C 1.273438 -4.5 1.109375 -5.335938 1.109375 -6.234375 L 1.109375 -9.6875 C 1.109375 -10.582031 1.273438 -11.421875 1.609375 -12.203125 C 1.953125 -12.984375 2.421875 -13.671875 3.015625 -14.265625 C 3.609375 -14.867188 4.296875 -15.335938 5.078125 -15.671875 C 5.859375 -16.015625 6.691406 -16.1875 7.578125 -16.1875 Z M 7.578125 -16.1875 "/></g></g></g><g fill="#004d94" fill-opacity="1"><g transform="translate(160.204702, 333.156482)"><g><path d="M 13.4375 -0.640625 C 13.4375 -0.210938 13.222656 0 12.796875 0 L 11.359375 0 C 11.148438 0 11.007812 -0.046875 10.9375 -0.140625 C 10.863281 -0.242188 10.796875 -0.367188 10.734375 -0.515625 L 8.921875 -5.75 L 4.015625 -3.578125 L 2.921875 -0.515625 C 2.859375 -0.359375 2.789062 -0.234375 2.71875 -0.140625 C 2.65625 -0.046875 2.503906 0 2.265625 0 L 0.890625 0 C 0.734375 0 0.582031 -0.0546875 0.4375 -0.171875 C 0.300781 -0.296875 0.234375 -0.453125 0.234375 -0.640625 C 0.234375 -0.648438 0.296875 -0.847656 0.421875 -1.234375 C 0.546875 -1.617188 0.722656 -2.140625 0.953125 -2.796875 C 1.179688 -3.453125 1.429688 -4.191406 1.703125 -5.015625 C 1.984375 -5.835938 2.273438 -6.691406 2.578125 -7.578125 C 2.890625 -8.472656 3.191406 -9.347656 3.484375 -10.203125 C 3.773438 -11.066406 4.046875 -11.859375 4.296875 -12.578125 C 4.546875 -13.304688 4.757812 -13.921875 4.9375 -14.421875 C 5.125 -14.921875 5.25 -15.25 5.3125 -15.40625 C 5.382812 -15.550781 5.457031 -15.671875 5.53125 -15.765625 C 5.613281 -15.867188 5.753906 -15.921875 5.953125 -15.921875 L 7.703125 -15.921875 C 7.898438 -15.921875 8.035156 -15.867188 8.109375 -15.765625 C 8.179688 -15.660156 8.253906 -15.539062 8.328125 -15.40625 L 13.421875 -0.875 C 13.429688 -0.78125 13.4375 -0.703125 13.4375 -0.640625 Z M 7.96875 -8.40625 C 7.84375 -8.71875 7.738281 -8.976562 7.65625 -9.1875 C 7.582031 -9.394531 7.53125 -9.550781 7.5 -9.65625 C 7.476562 -9.757812 7.445312 -9.859375 7.40625 -9.953125 C 7.363281 -10.054688 7.332031 -10.160156 7.3125 -10.265625 C 7.238281 -10.460938 7.164062 -10.675781 7.09375 -10.90625 C 7.019531 -11.132812 6.929688 -11.398438 6.828125 -11.703125 L 5.21875 -7.1875 Z M 7.96875 -8.40625 "/></g></g></g><g fill="#004d94" fill-opacity="1"><g transform="translate(173.914711, 333.156482)"><g><path d="M 7.4375 -15.921875 C 8.320312 -15.921875 9.144531 -15.753906 9.90625 -15.421875 C 10.664062 -15.097656 11.332031 -14.644531 11.90625 -14.0625 C 12.488281 -13.488281 12.945312 -12.816406 13.28125 -12.046875 C 13.613281 -11.285156 13.78125 -10.472656 13.78125 -9.609375 L 13.78125 -6.3125 C 13.78125 -5.445312 13.613281 -4.632812 13.28125 -3.875 C 12.945312 -3.113281 12.488281 -2.441406 11.90625 -1.859375 C 11.332031 -1.285156 10.664062 -0.832031 9.90625 -0.5 C 9.144531 -0.164062 8.320312 0 7.4375 0 L 1.8125 0 C 1.625 0 1.46875 -0.0546875 1.34375 -0.171875 C 1.226562 -0.296875 1.171875 -0.453125 1.171875 -0.640625 L 1.140625 -15.28125 C 1.140625 -15.445312 1.203125 -15.59375 1.328125 -15.71875 C 1.460938 -15.851562 1.625 -15.921875 1.8125 -15.921875 Z M 3.796875 -13.28125 L 3.796875 -2.640625 L 7.4375 -2.640625 C 8.113281 -2.640625 8.726562 -2.804688 9.28125 -3.140625 C 9.84375 -3.472656 10.289062 -3.914062 10.625 -4.46875 C 10.957031 -5.03125 11.125 -5.644531 11.125 -6.3125 L 11.125 -9.609375 C 11.125 -10.273438 10.957031 -10.882812 10.625 -11.4375 C 10.289062 -12 9.84375 -12.445312 9.28125 -12.78125 C 8.726562 -13.113281 8.113281 -13.28125 7.4375 -13.28125 Z M 3.796875 -13.28125 "/></g></g></g><g fill="#004d94" fill-opacity="1"><g transform="translate(188.758933, 333.156482)"><g><path d="M 1.828125 0 C 1.640625 0 1.484375 -0.0546875 1.359375 -0.171875 C 1.242188 -0.296875 1.1875 -0.453125 1.1875 -0.640625 L 1.15625 -15.28125 C 1.15625 -15.46875 1.21875 -15.617188 1.34375 -15.734375 C 1.476562 -15.859375 1.640625 -15.921875 1.828125 -15.921875 L 11.453125 -15.921875 C 11.773438 -15.921875 11.960938 -15.84375 12.015625 -15.6875 C 12.078125 -15.53125 12.109375 -15.351562 12.109375 -15.15625 L 12.109375 -14.046875 C 12.109375 -13.691406 12.0625 -13.472656 11.96875 -13.390625 C 11.875 -13.316406 11.65625 -13.28125 11.3125 -13.28125 L 3.84375 -13.28125 L 3.84375 -9.75 L 10.46875 -9.75 C 10.65625 -9.75 10.804688 -9.6875 10.921875 -9.5625 C 11.046875 -9.4375 11.109375 -9.28125 11.109375 -9.09375 L 11.109375 -7.75 C 11.109375 -7.5625 11.046875 -7.40625 10.921875 -7.28125 C 10.804688 -7.15625 10.65625 -7.09375 10.46875 -7.09375 L 3.84375 -7.09375 L 3.84375 -2.640625 L 11.5625 -2.640625 C 11.90625 -2.640625 12.125 -2.597656 12.21875 -2.515625 C 12.3125 -2.441406 12.359375 -2.226562 12.359375 -1.875 L 12.359375 -0.796875 C 12.359375 -0.597656 12.332031 -0.414062 12.28125 -0.25 C 12.226562 -0.0820312 12.035156 0 11.703125 0 Z M 1.828125 0 "/></g></g></g><g fill="#004d94" fill-opacity="1"><g transform="translate(201.97148, 333.156482)"><g><path d="M 15.609375 -15.921875 C 15.742188 -15.921875 15.890625 -15.910156 16.046875 -15.890625 C 16.210938 -15.867188 16.363281 -15.800781 16.5 -15.6875 C 16.632812 -15.582031 16.703125 -15.382812 16.703125 -15.09375 L 16.703125 -0.578125 C 16.703125 -0.285156 16.628906 -0.113281 16.484375 -0.0625 C 16.347656 -0.0195312 16.1875 0 16 0 L 14.828125 0 C 14.484375 0 14.265625 -0.046875 14.171875 -0.140625 C 14.078125 -0.234375 14.03125 -0.453125 14.03125 -0.796875 L 14.03125 -11.25 C 13.34375 -10.375 12.660156 -9.507812 11.984375 -8.65625 C 11.316406 -7.8125 10.625 -6.960938 9.90625 -6.109375 L 9.9375 -6.15625 C 9.84375 -6.007812 9.753906 -5.921875 9.671875 -5.890625 C 9.597656 -5.867188 9.488281 -5.859375 9.34375 -5.859375 L 8.5625 -5.859375 C 8.375 -5.859375 8.242188 -5.875 8.171875 -5.90625 C 8.109375 -5.945312 8.023438 -6.035156 7.921875 -6.171875 L 3.84375 -11.25 L 3.84375 -0.796875 C 3.84375 -0.453125 3.796875 -0.234375 3.703125 -0.140625 C 3.609375 -0.046875 3.390625 0 3.046875 0 L 1.875 0 C 1.6875 0.0078125 1.53125 -0.0078125 1.40625 -0.0625 C 1.28125 -0.113281 1.21875 -0.269531 1.21875 -0.53125 L 1.171875 -15.109375 C 1.171875 -15.390625 1.242188 -15.582031 1.390625 -15.6875 C 1.535156 -15.800781 1.703125 -15.867188 1.890625 -15.890625 C 2.078125 -15.910156 2.222656 -15.921875 2.328125 -15.921875 L 3.046875 -15.921875 C 3.234375 -15.921875 3.390625 -15.898438 3.515625 -15.859375 C 3.640625 -15.828125 3.757812 -15.726562 3.875 -15.5625 L 8.953125 -9.203125 L 14.046875 -15.625 C 14.210938 -15.820312 14.472656 -15.921875 14.828125 -15.921875 Z M 15.609375 -15.921875 "/></g></g></g><g fill="#004d94" fill-opacity="1"><g transform="translate(219.919855, 333.156482)"><g><path d="M 10.65625 -15.671875 C 10.78125 -15.835938 10.957031 -15.921875 11.1875 -15.921875 L 12.984375 -15.921875 C 13.398438 -15.921875 13.609375 -15.707031 13.609375 -15.28125 C 13.609375 -15.175781 13.582031 -15.078125 13.53125 -14.984375 C 13.476562 -14.890625 13.425781 -14.8125 13.375 -14.75 C 13.375 -14.738281 13.367188 -14.734375 13.359375 -14.734375 C 13.359375 -14.734375 13.359375 -14.722656 13.359375 -14.703125 L 13.34375 -14.6875 L 8.21875 -7.390625 L 8.21875 -0.78125 C 8.21875 -0.582031 8.191406 -0.398438 8.140625 -0.234375 C 8.085938 -0.078125 7.894531 0 7.5625 0 L 6.203125 0 C 5.898438 0 5.71875 -0.078125 5.65625 -0.234375 C 5.601562 -0.398438 5.578125 -0.582031 5.578125 -0.78125 L 5.578125 -7.421875 L 0.3125 -14.9375 C 0.28125 -15 0.257812 -15.054688 0.25 -15.109375 C 0.238281 -15.160156 0.234375 -15.226562 0.234375 -15.3125 C 0.234375 -15.71875 0.441406 -15.921875 0.859375 -15.921875 L 2.625 -15.921875 C 2.875 -15.921875 3.066406 -15.820312 3.203125 -15.625 L 6.921875 -10.109375 C 7.960938 -11.703125 8.789062 -12.960938 9.40625 -13.890625 C 10.03125 -14.816406 10.457031 -15.421875 10.6875 -15.703125 Z M 10.65625 -15.671875 "/></g></g></g><g fill="#004d94" fill-opacity="1"><g transform="translate(70.158282, 306.195097)"><g><path d="M 21.125 -7.109375 C 21.125 -5.804688 20.804688 -4.617188 20.171875 -3.546875 C 19.535156 -2.472656 18.675781 -1.613281 17.59375 -0.96875 C 16.507812 -0.320312 15.3125 0 14 0 L 2.984375 0 C 2.679688 0 2.4375 -0.109375 2.25 -0.328125 C 2.0625 -0.546875 1.96875 -0.785156 1.96875 -1.046875 L 1.90625 -25.1875 C 1.90625 -25.488281 2.007812 -25.738281 2.21875 -25.9375 C 2.425781 -26.132812 2.679688 -26.234375 2.984375 -26.234375 L 13.734375 -26.234375 C 14.765625 -26.234375 15.695312 -25.984375 16.53125 -25.484375 C 17.363281 -24.984375 18.023438 -24.3125 18.515625 -23.46875 C 19.003906 -22.625 19.25 -21.6875 19.25 -20.65625 C 19.25 -19.539062 19.050781 -18.632812 18.65625 -17.9375 C 18.269531 -17.238281 17.394531 -16.53125 16.03125 -15.8125 C 17.832031 -15.476562 19.128906 -14.84375 19.921875 -13.90625 C 20.722656 -12.96875 21.125 -11.613281 21.125 -9.84375 Z M 6.265625 -14.65625 C 6.898438 -14.988281 7.660156 -15.394531 8.546875 -15.875 C 9.429688 -16.351562 10.3125 -16.847656 11.1875 -17.359375 C 12.0625 -17.878906 12.820312 -18.359375 13.46875 -18.796875 C 14.113281 -19.234375 14.507812 -19.570312 14.65625 -19.8125 C 14.789062 -20.007812 14.859375 -20.289062 14.859375 -20.65625 C 14.859375 -20.988281 14.753906 -21.273438 14.546875 -21.515625 C 14.335938 -21.753906 14.066406 -21.875 13.734375 -21.875 L 6.265625 -21.875 Z M 6.265625 -9.9375 L 6.265625 -4.359375 L 14 -4.359375 C 14.769531 -4.359375 15.425781 -4.632812 15.96875 -5.1875 L 16.296875 -5.578125 C 16.554688 -5.878906 16.703125 -6.191406 16.734375 -6.515625 C 16.773438 -6.847656 16.796875 -7.046875 16.796875 -7.109375 C 16.796875 -7.285156 16.800781 -7.453125 16.8125 -7.609375 C 16.820312 -7.765625 16.828125 -7.925781 16.828125 -8.09375 C 16.828125 -8.25 16.832031 -8.40625 16.84375 -8.5625 C 16.851562 -8.71875 16.859375 -8.867188 16.859375 -9.015625 C 16.859375 -10.203125 16.617188 -11.019531 16.140625 -11.46875 C 15.660156 -11.914062 15.113281 -12.140625 14.5 -12.140625 L 10.296875 -12.140625 Z M 6.265625 -9.9375 "/></g></g></g><g fill="#004d94" fill-opacity="1"><g transform="translate(93.241815, 306.195097)"><g><path d="M 3.015625 0 C 2.710938 0 2.460938 -0.0976562 2.265625 -0.296875 C 2.066406 -0.492188 1.96875 -0.742188 1.96875 -1.046875 L 1.90625 -25.1875 C 1.90625 -25.488281 2.015625 -25.738281 2.234375 -25.9375 C 2.453125 -26.132812 2.710938 -26.234375 3.015625 -26.234375 L 18.859375 -26.234375 C 19.398438 -26.234375 19.710938 -26.101562 19.796875 -25.84375 C 19.890625 -25.582031 19.9375 -25.285156 19.9375 -24.953125 L 19.9375 -23.15625 C 19.9375 -22.5625 19.859375 -22.195312 19.703125 -22.0625 C 19.554688 -21.9375 19.195312 -21.875 18.625 -21.875 L 6.328125 -21.875 L 6.328125 -16.078125 L 17.25 -16.078125 C 17.550781 -16.078125 17.800781 -15.972656 18 -15.765625 C 18.195312 -15.554688 18.296875 -15.296875 18.296875 -14.984375 L 18.296875 -12.765625 C 18.296875 -12.453125 18.195312 -12.191406 18 -11.984375 C 17.800781 -11.773438 17.550781 -11.671875 17.25 -11.671875 L 6.328125 -11.671875 L 6.328125 -4.359375 L 19.0625 -4.359375 C 19.625 -4.359375 19.976562 -4.289062 20.125 -4.15625 C 20.28125 -4.03125 20.359375 -3.671875 20.359375 -3.078125 L 20.359375 -1.3125 C 20.359375 -0.976562 20.316406 -0.675781 20.234375 -0.40625 C 20.148438 -0.132812 19.832031 0 19.28125 0 Z M 3.015625 0 "/></g></g></g><g fill="#004d94" fill-opacity="1"><g transform="translate(115.013786, 306.195097)"><g><path d="M 14.65625 -26.234375 C 15.644531 -26.234375 16.554688 -25.976562 17.390625 -25.46875 C 18.234375 -24.957031 18.910156 -24.28125 19.421875 -23.4375 C 19.941406 -22.59375 20.203125 -21.664062 20.203125 -20.65625 C 20.203125 -19.414062 19.898438 -18.394531 19.296875 -17.59375 C 18.703125 -16.789062 17.929688 -16.078125 16.984375 -15.453125 C 17.335938 -14.523438 17.675781 -13.625 18 -12.75 C 18.332031 -11.882812 18.660156 -10.988281 18.984375 -10.0625 C 19.515625 -8.625 20.050781 -7.175781 20.59375 -5.71875 C 21.144531 -4.269531 21.703125 -2.8125 22.265625 -1.34375 C 22.441406 -0.90625 22.425781 -0.570312 22.21875 -0.34375 C 22.007812 -0.113281 21.6875 0 21.25 0 L 18.765625 0 C 18.410156 0 18.164062 -0.078125 18.03125 -0.234375 C 17.90625 -0.398438 17.796875 -0.59375 17.703125 -0.8125 L 12.984375 -13.3125 C 11.847656 -12.726562 10.753906 -12.148438 9.703125 -11.578125 C 8.660156 -11.003906 7.546875 -10.414062 6.359375 -9.8125 L 6.359375 -1.28125 C 6.359375 -0.945312 6.304688 -0.648438 6.203125 -0.390625 C 6.109375 -0.128906 5.8125 0 5.3125 0 L 2.984375 0 C 2.679688 0 2.4375 -0.109375 2.25 -0.328125 C 2.0625 -0.546875 1.96875 -0.785156 1.96875 -1.046875 L 1.90625 -25.1875 C 1.90625 -25.445312 2.007812 -25.6875 2.21875 -25.90625 C 2.425781 -26.125 2.679688 -26.234375 2.984375 -26.234375 Z M 6.359375 -21.875 L 6.359375 -14.71875 C 6.890625 -14.988281 7.515625 -15.300781 8.234375 -15.65625 C 8.953125 -16.019531 9.703125 -16.40625 10.484375 -16.8125 C 11.273438 -17.21875 12.019531 -17.617188 12.71875 -18.015625 C 13.425781 -18.421875 14.03125 -18.789062 14.53125 -19.125 C 15.03125 -19.46875 15.347656 -19.75 15.484375 -19.96875 L 15.484375 -19.9375 C 15.609375 -20.132812 15.671875 -20.363281 15.671875 -20.625 C 15.671875 -20.976562 15.550781 -21.273438 15.3125 -21.515625 C 15.070312 -21.753906 14.765625 -21.875 14.390625 -21.875 Z M 6.359375 -21.875 "/></g></g></g><g fill="#004d94" fill-opacity="1"><g transform="translate(137.933371, 306.195097)"><g><path d="M 21.9375 -1.046875 C 21.9375 -0.785156 21.832031 -0.546875 21.625 -0.328125 C 21.414062 -0.109375 21.160156 0 20.859375 0 L 18.625 0 C 18.207031 0 17.898438 -0.160156 17.703125 -0.484375 C 16.398438 -2.453125 15.132812 -4.34375 13.90625 -6.15625 C 12.675781 -7.976562 11.441406 -9.804688 10.203125 -11.640625 C 8.972656 -13.472656 7.679688 -15.382812 6.328125 -17.375 L 6.328125 -1.046875 C 6.328125 -0.785156 6.222656 -0.546875 6.015625 -0.328125 C 5.804688 -0.109375 5.550781 0 5.25 0 L 2.984375 0 C 2.679688 0 2.441406 -0.109375 2.265625 -0.328125 C 2.085938 -0.546875 2 -0.785156 2 -1.046875 L 1.9375 -25.1875 C 1.9375 -25.445312 2.035156 -25.6875 2.234375 -25.90625 C 2.429688 -26.125 2.679688 -26.234375 2.984375 -26.234375 L 5.40625 -26.234375 C 5.800781 -26.234375 6.097656 -26.0625 6.296875 -25.71875 L 6.296875 -25.75 L 17.546875 -8.828125 L 17.546875 -25.1875 C 17.546875 -25.445312 17.648438 -25.6875 17.859375 -25.90625 C 18.066406 -26.125 18.320312 -26.234375 18.625 -26.234375 L 20.859375 -26.234375 C 21.160156 -26.234375 21.414062 -26.125 21.625 -25.90625 C 21.832031 -25.6875 21.9375 -25.445312 21.9375 -25.1875 Z M 21.9375 -1.046875 "/></g></g></g><g fill="#004d94" fill-opacity="1"><g transform="translate(161.934994, 306.195097)"><g><path d="M 22.140625 -1.046875 C 22.140625 -0.347656 21.789062 0 21.09375 0 L 18.734375 0 C 18.378906 0 18.140625 -0.078125 18.015625 -0.234375 C 17.898438 -0.398438 17.785156 -0.609375 17.671875 -0.859375 L 14.6875 -9.484375 L 6.625 -5.90625 L 4.828125 -0.859375 C 4.710938 -0.585938 4.597656 -0.375 4.484375 -0.21875 C 4.378906 -0.0703125 4.128906 0 3.734375 0 L 1.46875 0 C 1.207031 0 0.960938 -0.0976562 0.734375 -0.296875 C 0.503906 -0.492188 0.390625 -0.742188 0.390625 -1.046875 C 0.390625 -1.066406 0.492188 -1.394531 0.703125 -2.03125 C 0.910156 -2.664062 1.195312 -3.523438 1.5625 -4.609375 C 1.9375 -5.691406 2.351562 -6.910156 2.8125 -8.265625 C 3.28125 -9.617188 3.765625 -11.023438 4.265625 -12.484375 C 4.765625 -13.953125 5.253906 -15.394531 5.734375 -16.8125 C 6.222656 -18.238281 6.671875 -19.546875 7.078125 -20.734375 C 7.492188 -21.929688 7.847656 -22.9375 8.140625 -23.75 C 8.441406 -24.570312 8.644531 -25.117188 8.75 -25.390625 C 8.863281 -25.628906 8.984375 -25.828125 9.109375 -25.984375 C 9.242188 -26.148438 9.476562 -26.234375 9.8125 -26.234375 L 12.6875 -26.234375 C 13.019531 -26.234375 13.242188 -26.144531 13.359375 -25.96875 C 13.484375 -25.800781 13.597656 -25.609375 13.703125 -25.390625 L 22.109375 -1.4375 C 22.128906 -1.289062 22.140625 -1.160156 22.140625 -1.046875 Z M 13.125 -13.84375 C 12.925781 -14.363281 12.757812 -14.789062 12.625 -15.125 C 12.5 -15.46875 12.410156 -15.726562 12.359375 -15.90625 C 12.316406 -16.082031 12.265625 -16.25 12.203125 -16.40625 C 12.140625 -16.570312 12.082031 -16.742188 12.03125 -16.921875 C 11.925781 -17.253906 11.8125 -17.601562 11.6875 -17.96875 C 11.570312 -18.34375 11.425781 -18.78125 11.25 -19.28125 L 8.59375 -11.84375 Z M 13.125 -13.84375 "/></g></g></g><g fill="#018fc6" fill-opacity="1"><g transform="translate(191.036141, 306.195097)"><g><path d="M 12.265625 -26.234375 C 13.710938 -26.234375 15.0625 -25.957031 16.3125 -25.40625 C 17.570312 -24.863281 18.675781 -24.117188 19.625 -23.171875 C 20.582031 -22.222656 21.332031 -21.117188 21.875 -19.859375 C 22.425781 -18.597656 22.703125 -17.257812 22.703125 -15.84375 L 22.703125 -10.390625 C 22.703125 -8.972656 22.425781 -7.632812 21.875 -6.375 C 21.332031 -5.125 20.582031 -4.019531 19.625 -3.0625 C 18.675781 -2.113281 17.570312 -1.363281 16.3125 -0.8125 C 15.0625 -0.269531 13.710938 0 12.265625 0 L 2.984375 0 C 2.679688 0 2.429688 -0.0976562 2.234375 -0.296875 C 2.035156 -0.492188 1.9375 -0.742188 1.9375 -1.046875 L 1.875 -25.1875 C 1.875 -25.445312 1.984375 -25.6875 2.203125 -25.90625 C 2.421875 -26.125 2.679688 -26.234375 2.984375 -26.234375 Z M 6.265625 -21.875 L 6.265625 -4.359375 L 12.265625 -4.359375 C 13.378906 -4.359375 14.394531 -4.628906 15.3125 -5.171875 C 16.226562 -5.722656 16.957031 -6.457031 17.5 -7.375 C 18.050781 -8.289062 18.328125 -9.296875 18.328125 -10.390625 L 18.328125 -15.84375 C 18.328125 -16.9375 18.050781 -17.941406 17.5 -18.859375 C 16.957031 -19.773438 16.226562 -20.503906 15.3125 -21.046875 C 14.394531 -21.597656 13.378906 -21.875 12.265625 -21.875 Z M 6.265625 -21.875 "/></g></g></g><g fill="#018fc6" fill-opacity="1"><g transform="translate(215.496821, 306.195097)"><g><path d="M 6.296875 -13.703125 L 16.53125 -18.109375 L 16.53125 -24.953125 C 16.53125 -25.285156 16.582031 -25.582031 16.6875 -25.84375 C 16.800781 -26.101562 17.109375 -26.234375 17.609375 -26.234375 L 19.8125 -26.234375 C 20.113281 -26.234375 20.375 -26.125 20.59375 -25.90625 C 20.8125 -25.6875 20.921875 -25.445312 20.921875 -25.1875 L 20.921875 -1.046875 C 20.921875 -0.785156 20.8125 -0.546875 20.59375 -0.328125 C 20.375 -0.109375 20.113281 0 19.8125 0 L 17.609375 0 C 17.109375 0 16.800781 -0.128906 16.6875 -0.390625 C 16.582031 -0.648438 16.53125 -0.945312 16.53125 -1.28125 L 16.53125 -13.28125 L 6.296875 -8.953125 L 6.296875 -1.28125 C 6.296875 -0.945312 6.25 -0.648438 6.15625 -0.390625 C 6.070312 -0.128906 5.757812 0 5.21875 0 L 2.984375 0 C 2.679688 0 2.441406 -0.109375 2.265625 -0.328125 C 2.085938 -0.546875 2 -0.785156 2 -1.046875 L 1.9375 -25.1875 C 1.9375 -25.445312 2.035156 -25.6875 2.234375 -25.90625 C 2.429688 -26.125 2.679688 -26.234375 2.984375 -26.234375 L 5.21875 -26.234375 C 5.757812 -26.234375 6.070312 -26.101562 6.15625 -25.84375 C 6.25 -25.582031 6.296875 -25.285156 6.296875 -24.953125 Z M 6.296875 -13.703125 "/></g></g></g><g fill="#018fc6" fill-opacity="1"><g transform="translate(238.481992, 306.195097)"><g><path d="M 18.765625 -1.109375 C 18.765625 -0.847656 18.65625 -0.597656 18.4375 -0.359375 C 18.21875 -0.117188 17.953125 0 17.640625 0 L 2.328125 0 C 2.023438 0 1.78125 -0.117188 1.59375 -0.359375 C 1.40625 -0.597656 1.3125 -0.847656 1.3125 -1.109375 L 1.28125 -7.15625 C 1.28125 -7.738281 1.3125 -8.222656 1.375 -8.609375 C 1.4375 -8.992188 1.613281 -9.351562 1.90625 -9.6875 C 2.207031 -10.03125 2.675781 -10.398438 3.3125 -10.796875 L 12.46875 -17.875 C 12.726562 -18.09375 12.941406 -18.269531 13.109375 -18.40625 C 13.285156 -18.550781 13.421875 -18.671875 13.515625 -18.765625 C 14.210938 -19.523438 14.484375 -20.300781 14.328125 -21.09375 C 14.179688 -21.875 13.5625 -22.265625 12.46875 -22.265625 L 8.953125 -22.265625 C 7.898438 -22.265625 7.144531 -22.132812 6.6875 -21.875 C 6.226562 -21.613281 5.910156 -21.078125 5.734375 -20.265625 C 5.710938 -20.046875 5.695312 -19.863281 5.6875 -19.71875 C 5.675781 -19.582031 5.671875 -19.472656 5.671875 -19.390625 L 5.671875 -19.25 C 5.671875 -18.832031 5.597656 -18.535156 5.453125 -18.359375 C 5.316406 -18.191406 5.03125 -18.109375 4.59375 -18.109375 L 2.390625 -18.109375 C 1.929688 -18.109375 1.640625 -18.191406 1.515625 -18.359375 C 1.398438 -18.535156 1.34375 -18.832031 1.34375 -19.25 L 1.34375 -19.84375 C 1.34375 -20.21875 1.390625 -20.765625 1.484375 -21.484375 C 1.585938 -22.203125 1.789062 -22.878906 2.09375 -23.515625 C 2.445312 -24.171875 3.070312 -24.835938 3.96875 -25.515625 C 4.84375 -26.191406 6.503906 -26.53125 8.953125 -26.53125 L 12.5625 -26.53125 C 14.050781 -26.53125 15.265625 -26.25 16.203125 -25.6875 C 17.140625 -25.132812 17.820312 -24.410156 18.25 -23.515625 C 18.675781 -22.617188 18.851562 -21.644531 18.78125 -20.59375 C 18.71875 -19.539062 18.429688 -18.523438 17.921875 -17.546875 C 17.410156 -16.566406 16.695312 -15.722656 15.78125 -15.015625 L 5.609375 -7.3125 L 5.609375 -4.5 L 17.640625 -4.5 C 17.953125 -4.5 18.21875 -4.375 18.4375 -4.125 C 18.65625 -3.882812 18.765625 -3.625 18.765625 -3.34375 Z M 18.765625 -1.109375 "/></g></g></g><g fill="#018fc6" fill-opacity="1"><g transform="translate(258.68008, 306.195097)"><g><path d="M 24.4375 -10.59375 C 24.4375 -9.082031 24.140625 -7.671875 23.546875 -6.359375 C 22.953125 -5.046875 22.125 -3.882812 21.0625 -2.875 C 20.007812 -1.875 18.789062 -1.09375 17.40625 -0.53125 C 16.03125 0.0195312 14.554688 0.296875 12.984375 0.296875 C 11.410156 0.296875 9.929688 0.0195312 8.546875 -0.53125 C 7.160156 -1.09375 5.941406 -1.875 4.890625 -2.875 C 3.835938 -3.882812 3.007812 -5.046875 2.40625 -6.359375 C 1.8125 -7.671875 1.515625 -9.082031 1.515625 -10.59375 L 1.515625 -15.75 C 1.515625 -17.25 1.8125 -18.65625 2.40625 -19.96875 C 3.007812 -21.28125 3.84375 -22.429688 4.90625 -23.421875 C 5.96875 -24.421875 7.191406 -25.195312 8.578125 -25.75 C 9.960938 -26.3125 11.441406 -26.59375 13.015625 -26.59375 C 14.585938 -26.59375 16.066406 -26.3125 17.453125 -25.75 C 18.847656 -25.195312 20.0625 -24.421875 21.09375 -23.421875 C 22.132812 -22.429688 22.953125 -21.28125 23.546875 -19.96875 C 24.140625 -18.65625 24.4375 -17.25 24.4375 -15.75 Z M 20 -15.75 C 20 -16.96875 19.679688 -18.082031 19.046875 -19.09375 C 18.421875 -20.113281 17.578125 -20.925781 16.515625 -21.53125 C 15.453125 -22.132812 14.273438 -22.4375 12.984375 -22.4375 C 11.691406 -22.4375 10.507812 -22.128906 9.4375 -21.515625 C 8.375 -20.898438 7.523438 -20.085938 6.890625 -19.078125 C 6.253906 -18.078125 5.9375 -16.96875 5.9375 -15.75 L 5.9375 -10.59375 C 5.9375 -9.363281 6.253906 -8.238281 6.890625 -7.21875 C 7.523438 -6.207031 8.375 -5.398438 9.4375 -4.796875 C 10.507812 -4.203125 11.691406 -3.90625 12.984375 -3.90625 C 14.273438 -3.90625 15.453125 -4.203125 16.515625 -4.796875 C 17.578125 -5.398438 18.421875 -6.207031 19.046875 -7.21875 C 19.679688 -8.238281 20 -9.363281 20 -10.59375 Z M 20 -15.75 "/></g></g></g></svg>